<?xml version="1.0" standalone="no"?>
<!DOCTYPE svg PUBLIC "-//W3C//DTD SVG 20010904//EN"
 "http://www.w3.org/TR/2001/REC-SVG-20010904/DTD/svg10.dtd">
<svg version="1.0" xmlns="http://www.w3.org/2000/svg"
 width="364.000000pt" height="238.000000pt" viewBox="0 0 364.000000 238.000000"
 preserveAspectRatio="xMidYMid meet">

<g transform="translate(0.000000,238.000000) scale(0.100000,-0.100000)"
fill="#000000" stroke="none">
<path d="M1715 2354 c-16 -8 -215 -199 -440 -424 l-410 -410 -396 0 c-325 0
-399 -3 -415 -14 -18 -14 -19 -33 -22 -590 l-2 -576 24 -25 25 -25 397 0 397
0 68 -64 c79 -75 180 -138 276 -172 l68 -24 816 0 815 0 53 26 c77 39 106 87
106 178 0 39 -3 83 -8 99 l-7 27 78 0 c109 0 174 21 226 74 60 59 80 117 74
210 -3 52 -11 85 -27 111 -12 21 -21 38 -19 39 2 2 24 10 50 20 74 27 123 69
153 129 35 73 43 153 21 211 -19 49 -85 117 -141 143 -19 9 -34 19 -32 22 45
80 61 131 61 201 0 58 -5 85 -21 116 -42 80 -128 136 -234 154 -39 6 -292 10
-642 10 l-577 0 32 58 c31 53 33 63 33 152 0 82 -4 103 -27 152 -71 152 -246
247 -353 192z m124 -134 c68 -34 118 -108 128 -190 9 -80 -18 -120 -225 -334
-101 -105 -191 -205 -199 -222 -14 -29 -14 -36 1 -80 47 -139 -10 -287 -147
-375 -79 -51 -150 -66 -220 -45 -28 9 -72 29 -97 46 -52 35 -69 37 -101 12
-28 -23 -30 -73 -4 -102 37 -41 155 -90 231 -97 243 -20 483 202 486 452 1 38
-2 88 -6 110 l-6 40 112 119 112 118 660 -5 c481 -3 673 -8 704 -17 26 -8 54
-26 73 -48 29 -33 31 -39 27 -100 -4 -57 -8 -68 -35 -92 -52 -47 -94 -50 -631
-50 -555 0 -542 2 -542 -65 0 -65 -10 -64 525 -65 508 -1 621 -8 710 -41 71
-26 95 -57 95 -122 0 -44 -4 -54 -37 -87 -28 -27 -52 -40 -91 -49 -36 -7 -229
-11 -595 -11 -415 0 -548 -3 -567 -13 -20 -10 -26 -21 -28 -55 -3 -36 0 -43
20 -51 13 -4 246 -11 518 -15 540 -8 527 -7 573 -67 27 -37 33 -106 13 -152
-11 -28 -26 -43 -58 -57 -41 -19 -69 -20 -533 -20 -543 0 -538 0 -543 -60 -5
-67 -20 -64 379 -70 l361 -5 19 -23 c42 -52 32 -144 -18 -163 -14 -5 -356 -9
-806 -9 -722 1 -786 2 -833 18 -84 29 -163 82 -247 164 l-79 78 -277 0 c-153
0 -326 3 -384 7 l-107 6 0 479 0 478 365 0 c295 0 371 3 393 14 15 8 207 196
427 418 220 221 407 406 415 410 23 10 28 9 69 -12z"/>
</g>
</svg>
