<?xml version="1.0" standalone="no"?>
<!DOCTYPE svg PUBLIC "-//W3C//DTD SVG 20010904//EN"
 "http://www.w3.org/TR/2001/REC-SVG-20010904/DTD/svg10.dtd">
<svg version="1.0" xmlns="http://www.w3.org/2000/svg"
 width="512.000000pt" height="512.000000pt" viewBox="0 0 512.000000 512.000000"
 preserveAspectRatio="xMidYMid meet">

<g transform="translate(0.000000,512.000000) scale(0.100000,-0.100000)"
fill="#000000" stroke="none">
<path d="M2380 4625 c-293 -47 -576 -227 -747 -476 -83 -121 -153 -299 -178
-454 -44 -272 24 -579 178 -804 174 -253 455 -431 757 -476 612 -93 1183 326
1275 935 73 479 -168 951 -596 1166 -220 110 -450 146 -689 109z m370 -328
c209 -57 368 -171 480 -344 89 -136 125 -259 125 -433 0 -174 -36 -297 -125
-433 -238 -366 -718 -474 -1087 -247 -226 139 -363 368 -380 636 -26 400 254
753 662 833 67 13 257 6 325 -12z"/>
<path d="M3636 2570 c-63 -19 -106 -83 -106 -158 0 -55 8 -67 119 -193 203
-231 327 -534 347 -850 8 -128 -1 -154 -86 -232 -159 -148 -518 -266 -965
-319 -145 -17 -625 -17 -770 0 -336 40 -579 103 -792 207 -129 63 -233 150
-254 212 -26 79 11 347 72 520 68 191 163 347 311 511 68 75 86 125 68 186
-24 82 -101 127 -187 111 -48 -9 -142 -98 -242 -232 -213 -285 -329 -608 -348
-968 -9 -190 25 -289 146 -418 429 -456 1754 -611 2670 -311 251 82 434 186
553 313 120 127 154 226 145 416 -22 425 -192 825 -475 1118 -90 92 -131 109
-206 87z"/>
</g>
</svg>
