<?xml version="1.0" standalone="no"?>
<!DOCTYPE svg PUBLIC "-//W3C//DTD SVG 20010904//EN"
 "http://www.w3.org/TR/2001/REC-SVG-20010904/DTD/svg10.dtd">
<svg version="1.0" xmlns="http://www.w3.org/2000/svg"
 width="820.000000pt" height="860.000000pt" viewBox="0 0 820.000000 860.000000"
 preserveAspectRatio="xMidYMid meet">

<g transform="translate(0.000000,860.000000) scale(0.100000,-0.100000)"
fill="#000000" stroke="none">
<path d="M3795 8189 c-822 -68 -1564 -363 -2205 -875 -174 -139 -467 -432
-604 -604 -699 -875 -1002 -1977 -845 -3075 103 -719 385 -1368 847 -1947 136
-171 429 -464 600 -600 387 -308 807 -537 1262 -688 1051 -347 2222 -237 3186
300 175 97 411 256 574 386 173 138 466 431 602 602 462 579 745 1231 847
1947 157 1104 -144 2195 -847 3077 -137 172 -430 465 -602 602 -614 491 -1319
781 -2105 866 -136 15 -575 21 -710 9z m606 -894 c598 -58 1156 -283 1634
-659 142 -111 423 -398 531 -541 353 -465 554 -962 626 -1545 17 -137 17 -563
0 -700 -61 -490 -221 -938 -480 -1340 -219 -340 -582 -703 -922 -922 -535
-344 -1138 -513 -1770 -494 -270 7 -471 34 -690 92 -415 110 -757 274 -1098
528 -185 138 -465 415 -599 591 -352 467 -553 963 -625 1545 -17 139 -17 563
0 705 72 585 291 1115 652 1575 116 148 399 426 550 540 399 302 847 502 1325
589 94 17 179 28 345 44 94 10 391 5 521 -8z"/>
<path d="M3990 6353 c-312 -33 -625 -215 -804 -466 -197 -276 -244 -682 -97
-840 108 -117 388 -125 508 -14 72 67 88 110 113 314 22 183 125 281 320 303
186 21 344 -29 417 -133 44 -63 55 -95 60 -178 10 -137 -40 -296 -141 -448
-25 -37 -104 -130 -176 -206 -278 -295 -388 -534 -422 -922 -31 -358 77 -503
366 -491 124 5 188 30 246 95 53 61 69 114 86 290 28 304 110 466 365 723 137
138 193 214 259 351 90 189 127 391 117 638 -9 224 -49 359 -155 526 -89 139
-232 266 -388 344 -181 91 -457 137 -674 114z"/>
<path d="M4008 2940 c-219 -37 -366 -257 -330 -494 46 -291 358 -448 628 -316
82 40 174 138 204 217 48 123 34 293 -31 395 -101 157 -277 230 -471 198z"/>
</g>
</svg>
