<?xml version="1.0" standalone="no"?>
<!DOCTYPE svg PUBLIC "-//W3C//DTD SVG 20010904//EN"
 "http://www.w3.org/TR/2001/REC-SVG-20010904/DTD/svg10.dtd">
<svg version="1.0" xmlns="http://www.w3.org/2000/svg"
 width="900.000000pt" height="900.000000pt" viewBox="0 0 900.000000 900.000000"
 preserveAspectRatio="xMidYMid meet">

<g transform="translate(0.000000,900.000000) scale(0.100000,-0.100000)"
fill="#000000" stroke="none">
<path d="M4140 8431 c-48 -15 -85 -39 -121 -78 -69 -72 -73 -87 -79 -298 l-5
-190 -138 -12 c-682 -62 -1229 -296 -1607 -690 -296 -307 -465 -685 -500
-1117 -5 -71 -10 -322 -10 -557 l0 -429 -77 0 c-482 0 -896 -296 -1015 -725
-21 -77 -22 -95 -23 -560 0 -469 0 -481 21 -525 60 -127 205 -187 349 -146 45
14 69 29 109 69 28 29 58 70 65 92 11 31 15 133 17 455 2 228 5 435 8 459 8
61 52 135 110 188 90 81 190 119 342 129 l94 7 0 -609 c0 -335 4 -650 9 -700
24 -248 117 -448 291 -624 126 -129 229 -197 388 -257 141 -52 180 -56 607
-62 l400 -6 5 -285 c6 -308 10 -331 70 -451 72 -141 207 -254 382 -318 153
-57 318 -77 485 -61 158 16 249 40 373 101 88 44 117 65 185 133 90 91 133
168 165 293 17 66 20 111 20 334 l0 257 408 4 c404 4 408 5 506 31 368 99 641
371 748 746 21 74 22 97 27 771 l6 695 92 -1 c201 -3 351 -88 434 -244 l24
-45 5 -525 c5 -506 6 -527 26 -570 42 -91 127 -149 229 -158 127 -10 237 52
286 160 l24 53 0 530 c0 457 -3 540 -17 601 -71 306 -291 556 -601 683 -111
46 -232 70 -379 78 l-127 6 -4 551 -4 551 -26 121 c-36 164 -78 288 -143 424
-317 660 -1000 1051 -2001 1145 l-73 7 0 167 c0 194 -11 245 -66 309 -56 66
-113 95 -198 98 -39 2 -82 0 -96 -5z m235 -1127 c512 -23 966 -153 1286 -365
114 -77 278 -237 343 -336 89 -136 153 -321 176 -503 16 -132 13 -561 -5 -645
-33 -154 -125 -274 -264 -343 l-75 -37 -1616 0 -1616 0 -78 38 c-48 24 -97 59
-131 92 -61 61 -120 172 -135 254 -16 86 -13 560 5 666 30 187 83 325 180 470
241 362 690 605 1273 690 142 21 342 34 447 29 44 -2 139 -6 210 -10z m-2029
-2723 c40 -17 112 -41 160 -53 l89 -23 1625 0 1625 0 85 22 c47 12 123 38 170
57 46 20 86 36 87 36 2 0 3 -314 3 -698 0 -761 0 -759 -58 -866 -63 -117 -200
-212 -339 -235 -49 -9 -495 -11 -1618 -9 l-1550 3 -59 23 c-131 49 -214 126
-275 252 l-36 75 -3 729 c-2 587 0 727 10 723 7 -3 45 -19 84 -36z m2154
-2565 c0 -217 -1 -235 -20 -258 -35 -45 -92 -61 -234 -66 -155 -5 -223 7 -272
50 l-34 30 0 239 0 239 280 0 280 0 0 -234z"/>
<path d="M3007 6176 c-100 -37 -166 -111 -188 -212 -30 -136 57 -278 199 -325
20 -6 62 -9 98 -6 282 22 354 400 101 528 -53 28 -157 35 -210 15z"/>
<path d="M5264 6180 c-54 -17 -127 -73 -156 -121 -89 -143 -39 -320 111 -396
90 -46 164 -46 252 0 204 105 202 393 -4 498 -47 25 -153 34 -203 19z"/>
</g>
</svg>
