<?xml version="1.0" standalone="no"?>
<!DOCTYPE svg PUBLIC "-//W3C//DTD SVG 20010904//EN"
 "http://www.w3.org/TR/2001/REC-SVG-20010904/DTD/svg10.dtd">
<svg version="1.0" xmlns="http://www.w3.org/2000/svg"
 width="291.000000pt" height="209.000000pt" viewBox="0 0 291.000000 209.000000"
 preserveAspectRatio="xMidYMid meet">

<g transform="translate(0.000000,209.000000) scale(0.100000,-0.100000)"
fill="#000000" stroke="none">
<path d="M1623 2046 c-154 -38 -410 -206 -642 -422 l-74 -69 -419 -5 c-401 -5
-420 -6 -434 -24 -21 -29 -21 -1153 0 -1181 13 -19 36 -20 428 -28 l415 -9 89
-86 c94 -92 169 -139 265 -166 50 -15 130 -16 700 -14 578 3 647 5 674 20 42
23 81 66 99 110 21 48 21 167 1 215 -15 37 -15 37 19 72 93 95 111 252 41 355
l-24 36 49 46 c61 57 85 116 84 204 -1 78 -30 153 -78 199 l-32 31 30 61 c35
71 45 157 26 224 -17 61 -77 127 -142 156 -49 22 -69 24 -241 27 l-187 4 -20
37 c-79 155 -401 261 -627 207z m296 -142 c130 -34 207 -92 222 -166 14 -72
11 -719 -4 -747 -22 -44 -62 -65 -132 -69 -50 -3 -73 0 -107 17 -54 26 -112
85 -127 130 -7 22 -11 137 -11 334 0 266 -2 303 -17 319 -20 22 -70 23 -95 1
-16 -14 -18 -35 -19 -212 l0 -196 -42 -68 c-56 -89 -148 -181 -216 -214 -44
-22 -69 -27 -125 -27 -86 -1 -133 15 -187 60 -65 54 -129 38 -129 -32 0 -72
132 -152 268 -161 142 -10 256 31 368 131 l62 55 17 -45 c37 -97 177 -211 283
-229 l38 -6 0 -92 c-1 -95 20 -164 61 -209 15 -17 15 -20 -4 -41 -51 -55 -73
-160 -50 -240 l8 -28 -338 3 -338 3 -80 38 c-67 32 -95 54 -174 135 l-94 96
-391 7 c-215 4 -392 8 -393 8 -2 1 -3 215 -3 476 l0 475 374 0 c206 0 385 4
398 9 13 5 93 71 178 146 324 285 490 373 669 359 41 -3 100 -12 130 -20z
m721 -253 c43 -23 69 -53 76 -86 8 -46 -13 -114 -46 -147 l-28 -28 -176 0
-176 0 0 124 c0 68 -3 132 -7 141 -6 16 7 17 163 13 114 -3 177 -8 194 -17z
m15 -412 c66 -17 98 -56 103 -126 3 -48 0 -64 -20 -92 -42 -62 -72 -70 -283
-78 l-188 -6 6 33 c4 18 7 88 7 156 l0 124 166 0 c91 0 185 -5 209 -11z m-35
-451 c75 -51 95 -128 53 -201 -35 -60 -65 -67 -273 -66 -202 0 -241 8 -273 51
-22 29 -33 108 -23 162 12 64 51 74 297 75 177 1 188 0 219 -21z m-85 -417
c51 -21 75 -50 75 -92 0 -53 -18 -86 -53 -99 -37 -13 -377 -13 -411 0 -33 12
-48 42 -48 97 0 54 29 90 83 104 47 12 318 4 354 -10z"/>
</g>
</svg>
