<?xml version="1.0" standalone="no"?>
<!DOCTYPE svg PUBLIC "-//W3C//DTD SVG 20010904//EN"
 "http://www.w3.org/TR/2001/REC-SVG-20010904/DTD/svg10.dtd">
<svg version="1.0" xmlns="http://www.w3.org/2000/svg"
 width="351.000000pt" height="194.000000pt" viewBox="0 0 351.000000 194.000000"
 preserveAspectRatio="xMidYMid meet">

<g transform="translate(0.000000,194.000000) scale(0.100000,-0.100000)"
fill="#000000" stroke="none">
<path d="M1538 1895 c-72 -18 -169 -62 -233 -106 -106 -74 -151 -108 -189
-144 -22 -20 -65 -55 -95 -78 -31 -22 -81 -64 -111 -93 l-55 -53 -399 -3 -398
-3 -19 -24 c-18 -22 -19 -46 -19 -555 l0 -533 25 -23 25 -23 390 6 390 6 32
-41 c37 -45 163 -148 183 -148 7 0 39 -12 71 -27 l59 -27 574 -9 c315 -5 602
-6 637 -2 78 8 146 50 175 106 26 52 35 144 19 208 -12 50 -11 52 18 85 46 53
75 139 69 211 -2 33 -7 68 -12 78 -7 16 12 17 311 17 188 0 334 4 356 10 53
15 123 88 137 144 14 57 14 139 0 190 -6 23 -31 61 -61 93 -70 74 -106 83
-338 90 -102 3 -194 9 -205 14 -15 6 -10 8 20 8 66 2 267 47 315 71 58 29 112
76 127 109 15 33 16 143 2 196 -23 84 -142 165 -243 165 -27 0 -218 -29 -800
-124 l-138 -23 -18 41 c-31 74 -103 124 -247 172 -97 33 -265 42 -355 19z
m222 -109 c36 -8 95 -28 133 -45 37 -17 71 -31 75 -31 5 0 21 -14 38 -31 l29
-30 3 -352 c2 -233 0 -365 -8 -389 -11 -39 -48 -72 -92 -83 -90 -23 -213 83
-248 214 -6 24 -15 155 -18 291 -6 185 -11 252 -21 264 -19 23 -78 21 -91 -3
-6 -12 -10 -101 -10 -219 l0 -199 -52 -78 c-94 -141 -142 -176 -254 -183 -65
-4 -77 -1 -169 37 -109 46 -121 48 -153 25 -63 -44 13 -121 163 -164 183 -52
311 -23 435 101 l59 60 35 -68 c51 -101 133 -171 226 -193 l50 -12 0 -89 c0
-90 11 -130 48 -172 14 -16 14 -20 -5 -46 -39 -52 -56 -166 -33 -225 l10 -26
-283 0 c-318 1 -409 8 -467 39 -22 11 -58 31 -80 42 -22 12 -69 53 -105 93
l-65 71 -380 -2 -380 -2 0 455 0 454 354 0 c195 0 366 4 379 9 13 5 51 32 85
60 34 28 65 51 69 51 5 0 35 26 68 59 90 88 281 228 361 267 75 35 162 62 204
63 14 0 54 -6 90 -13z m1398 -116 c52 -32 80 -128 52 -181 -21 -38 -105 -66
-255 -82 -22 -3 -201 -32 -397 -66 -197 -34 -368 -61 -379 -61 -22 0 -22 2
-16 126 3 89 9 129 18 135 7 4 43 11 79 14 36 3 193 28 350 56 321 55 453 77
490 78 14 1 40 -8 58 -19z m-181 -549 l311 -6 27 -25 c73 -67 72 -212 -2 -241
-20 -8 -188 -9 -593 -5 -310 4 -564 8 -565 9 0 1 1 66 3 145 l4 143 251 -6
c139 -4 392 -10 564 -14z m-627 -398 c152 -6 153 -6 188 -37 32 -28 34 -33 30
-83 -4 -42 -11 -60 -33 -83 l-29 -30 -212 0 c-203 0 -212 1 -240 22 -41 31
-44 37 -44 88 0 50 24 96 62 116 27 15 69 16 278 7z m70 -364 c54 -19 76 -102
46 -174 -21 -49 -57 -56 -249 -48 -152 6 -159 7 -174 30 -43 65 -17 168 47
190 45 15 287 17 330 2z"/>
</g>
</svg>
